<svg width="243" height="46" viewBox="0 0 243 46" fill="none" xmlns="http://www.w3.org/2000/svg">
<path d="M10.9086 43.466L13.0886 37.2839H26.9809L28.95 43.4131C29.181 44.1318 29.7812 44.6098 30.453 44.6098H39.9546L25.5457 0.981149H14.696L0 44.6098H9.42354C10.0771 44.6098 10.665 44.157 10.9086 43.466ZM24.3402 28.6497H15.8441L20.0347 14.5211L24.3402 28.6497ZM59.4153 44.6098C65.9596 44.6098 71.0688 41.4701 74.1113 38.0034C77.8427 33.7517 79.1056 28.6497 79.1056 22.8936C79.1056 18.1841 78.2445 11.9047 73.7668 6.9989C68.8299 1.56984 62.4004 0.981149 58.5542 0.981149H47.1235C46.2396 0.981149 45.523 1.79763 45.523 2.8048V42.7862C45.523 43.7933 46.2396 44.6098 47.1235 44.6098H59.4153ZM57.7255 34.9934L55.4543 34.9945V10.5965H57.8654C60.3338 10.5965 63.4337 10.8581 65.7874 13.3437C67.6818 15.3714 68.7725 18.8382 68.7725 22.8936C68.7725 27.734 67.1077 30.4812 65.8448 31.8548C63.3538 34.6301 60.1155 34.9725 57.7255 34.9934ZM96.4996 44.6098V27.4723H107.407V17.857H96.4996V10.5965H108.498V2.8048C108.498 1.79763 107.781 0.981149 106.897 0.981149H86.5684V42.7862C86.5684 43.7933 87.285 44.6098 88.1689 44.6098H96.4996ZM125.49 44.6098V18.4457H115.558V42.7862C115.558 43.7933 116.275 44.6098 117.159 44.6098H125.49ZM125.49 11.9047V1.43902H117.159C116.275 1.43902 115.558 2.25549 115.558 3.26266V11.9047H125.49ZM156.546 42.7862V34.9945H144.606V0.981149H136.275C135.391 0.981149 134.675 1.79763 134.675 2.8048V44.6098H154.946C155.83 44.6098 156.546 43.7933 156.546 42.7862ZM171.158 43.0539L174.228 19.4922L182.867 44.0374C182.988 44.3832 183.282 44.6098 183.609 44.6098H186.497C186.819 44.6098 187.11 44.3893 187.235 44.0505L196.271 19.4922L198.906 43.017C199.008 43.9275 199.688 44.6098 200.494 44.6098H209.016L203.275 0.981149H193.344L185.135 24.2672L177.385 0.981149H167.568L161.082 44.6098H169.575C170.368 44.6098 171.042 43.9479 171.158 43.0539ZM228.074 45.591C232.15 45.591 236.111 44.8714 239.383 41.1431C242.139 38.0034 243 34.1442 243 30.1541C243 27.1453 242.483 24.7251 240.532 22.3703C238.522 19.8847 235.997 18.9036 233.585 18.0532L230.543 17.0067C228.189 16.2218 227.5 15.4368 227.213 15.0444C226.812 14.4557 226.697 13.867 226.697 13.0821C226.697 12.1009 227.099 11.3814 227.673 10.7273C228.648 9.68072 229.969 9.41908 230.945 9.41908C232.265 9.41908 234.504 9.68072 237.489 12.3625L241.45 3.53216C237.833 1.37362 233.413 0 229.624 0C224.975 0 221.76 1.89691 219.808 4.12086C218.143 6.01775 216.306 9.28827 216.306 14.6519C216.306 16.8759 216.536 19.9501 218.488 22.3703C220.038 24.3326 222.391 25.3138 223.999 25.9025L226.582 26.8182C229.05 27.6686 230.543 28.1264 231.519 29.1076C232.322 29.8925 232.61 30.8736 232.61 31.724C232.61 32.836 232.208 33.8171 231.634 34.4712C231.002 35.2561 229.797 35.9756 227.787 35.9756C224.343 35.9756 221.128 33.8171 219.004 31.5277L214.756 40.6852C217.512 42.8437 219.923 43.8903 220.554 44.1519C223.367 45.3293 225.663 45.591 228.074 45.591Z" fill="white"/>
</svg>
