<svg width="474" height="78" viewBox="0 0 474 78" fill="none" xmlns="http://www.w3.org/2000/svg">
<path d="M21.2547 74.3269L25.5021 63.7554H52.5702L56.407 74.2363C56.8569 75.4654 58.0265 76.2827 59.3354 76.2827H77.8487L49.7739 1.67776H28.634L0 76.2827H18.3611C19.6345 76.2827 20.7799 75.5085 21.2547 74.3269ZM47.4251 48.991H30.871L39.0362 24.831L47.4251 48.991ZM115.766 76.2827C128.517 76.2827 138.472 70.9139 144.4 64.9857C151.671 57.7154 154.131 48.991 154.131 39.148C154.131 31.0947 152.454 20.357 143.729 11.9681C134.11 2.68443 121.583 1.67776 114.089 1.67776H91.8167C90.0944 1.67776 88.6983 3.07395 88.6983 4.79621V73.1643C88.6983 74.8866 90.0944 76.2827 91.8167 76.2827H115.766ZM112.474 59.8387L108.049 59.8406V18.12H112.746C117.556 18.12 123.596 18.5674 128.182 22.8177C131.873 26.2851 133.998 32.2132 133.998 39.148C133.998 47.4251 130.754 52.1228 128.294 54.4717C123.44 59.2174 117.131 59.8029 112.474 59.8387ZM188.022 76.2827V46.9776H209.274V30.5355H188.022V18.12H211.399V4.79621C211.399 3.07395 210.003 1.67776 208.281 1.67776H168.672V73.1643C168.672 74.8866 170.068 76.2827 171.791 76.2827H188.022ZM244.507 76.2827V31.5421H225.157V73.1643C225.157 74.8866 226.553 76.2827 228.276 76.2827H244.507ZM244.507 20.357V2.46072H228.276C226.553 2.46072 225.157 3.85689 225.157 5.57915V20.357H244.507ZM305.019 73.1643V59.8406H281.754V1.67776H265.522C263.8 1.67776 262.404 3.07395 262.404 4.79621V76.2827H301.901C303.623 76.2827 305.019 74.8866 305.019 73.1643ZM333.489 73.6222L339.469 33.3317L356.302 75.3039C356.539 75.8952 357.112 76.2827 357.749 76.2827H363.375C364.004 76.2827 364.57 75.9057 364.813 75.3264L382.42 33.3317L387.554 73.5591C387.752 75.1161 389.077 76.2827 390.647 76.2827H407.251L396.066 1.67776H376.716L360.721 41.4969L345.621 1.67776H326.495L313.855 76.2827H330.404C331.95 76.2827 333.262 75.1509 333.489 73.6222ZM444.386 77.9605C452.328 77.9605 460.045 76.7302 466.421 70.3546C471.79 64.9857 473.468 58.3865 473.468 51.5636C473.468 46.4184 472.461 42.2799 468.658 38.2532C464.743 34.0029 459.822 32.3251 455.124 30.871L449.196 29.0814C444.61 27.7392 443.268 26.397 442.708 25.7259C441.925 24.7192 441.702 23.7125 441.702 22.3703C441.702 20.6925 442.485 19.4622 443.603 18.3437C445.505 16.554 448.077 16.1066 449.979 16.1066C452.551 16.1066 456.914 16.554 462.73 21.1399L470.448 6.03999C463.401 2.34889 454.788 0 447.406 0C438.346 0 432.083 3.24371 428.28 7.04666C425.036 10.2904 421.457 15.8829 421.457 25.0548C421.457 28.8577 421.904 34.1147 425.707 38.2532C428.727 41.6088 433.313 43.2866 436.445 44.2932L441.478 45.8591C446.288 47.3132 449.196 48.0961 451.097 49.7739C452.663 51.1161 453.222 52.7939 453.222 54.248C453.222 56.1495 452.44 57.8272 451.321 58.9458C450.091 60.288 447.742 61.5183 443.827 61.5183C437.116 61.5183 430.852 57.8272 426.714 53.9124L418.437 69.5717C423.806 73.2628 428.503 75.0524 429.734 75.4998C435.214 77.5131 439.688 77.9605 444.386 77.9605Z" fill="white"/>
</svg>
